<?xml version="1.0" standalone="no"?>
<!DOCTYPE svg PUBLIC "-//W3C//DTD SVG 20010904//EN"
 "http://www.w3.org/TR/2001/REC-SVG-20010904/DTD/svg10.dtd">
<svg version="1.0" xmlns="http://www.w3.org/2000/svg"
 width="3000.000000pt" height="3000.000000pt" viewBox="0 0 3000.000000 3000.000000"
 preserveAspectRatio="xMidYMid meet">
<metadata>
Created by potrace 1.14, written by Peter Selinger 2001-2017
</metadata>
<g transform="translate(0.000000,3000.000000) scale(0.100000,-0.100000)"
fill="#000000" stroke="none">
<path d="M9889 24285 c-2 -1 -74 -6 -159 -10 -85 -4 -180 -8 -210 -10 -172
-13 -218 -16 -250 -20 -19 -3 -64 -7 -100 -10 -120 -9 -234 -21 -295 -31 -11
-1 -42 -5 -70 -9 -44 -5 -192 -27 -280 -41 -214 -34 -434 -79 -635 -129 -8 -2
-35 -8 -60 -14 -60 -13 -420 -119 -445 -130 -11 -5 -49 -19 -85 -32 -36 -12
-108 -39 -160 -60 -361 -141 -767 -363 -1196 -654 -53 -36 -348 -252 -384
-282 -8 -7 -70 -57 -137 -111 -331 -268 -735 -655 -1003 -962 -388 -442 -676
-839 -925 -1275 -56 -98 -163 -322 -205 -430 -24 -60 -49 -123 -55 -140 -22
-53 -133 -398 -155 -480 -61 -228 -83 -317 -114 -466 -19 -90 -37 -180 -41
-199 -3 -19 -12 -71 -20 -115 -18 -105 -22 -129 -40 -265 -21 -162 -23 -177
-30 -255 -3 -38 -8 -81 -10 -95 -3 -24 -6 -65 -22 -295 -15 -220 -7 -978 12
-1128 2 -16 7 -72 10 -125 4 -54 9 -104 10 -112 1 -8 6 -49 10 -90 4 -41 9
-83 10 -92 2 -9 6 -44 10 -77 3 -33 8 -70 10 -82 3 -12 7 -45 10 -72 3 -28 8
-53 9 -56 2 -3 7 -31 10 -61 3 -30 8 -66 11 -80 3 -14 9 -50 15 -80 5 -30 12
-66 15 -80 3 -14 7 -38 10 -55 2 -16 16 -84 30 -150 15 -66 28 -131 31 -145 3
-13 14 -63 25 -110 11 -47 22 -92 24 -100 10 -44 90 -331 121 -430 293 -942
786 -1892 1468 -2825 44 -60 83 -112 86 -115 3 -3 25 -32 49 -65 39 -53 237
-305 283 -360 51 -62 184 -222 193 -231 6 -6 35 -39 65 -74 252 -292 690 -749
945 -986 22 -20 70 -64 106 -98 70 -65 97 -89 229 -206 47 -41 87 -77 90 -80
3 -3 46 -39 95 -80 50 -41 92 -77 95 -81 18 -20 339 -271 469 -366 169 -126
438 -306 601 -403 120 -72 366 -216 380 -223 8 -4 31 -17 50 -28 52 -32 285
-160 397 -220 54 -28 117 -62 141 -76 92 -52 883 -443 897 -443 2 0 47 -21
102 -46 119 -56 480 -216 618 -273 55 -23 109 -46 120 -51 31 -14 145 -61 195
-80 25 -10 126 -50 225 -89 183 -73 350 -138 440 -171 28 -10 88 -33 135 -50
204 -77 966 -339 1030 -355 8 -2 44 -13 80 -25 83 -28 216 -70 255 -80 17 -5
91 -27 165 -49 231 -70 260 -79 450 -131 102 -27 199 -54 215 -60 35 -10 341
-90 368 -96 10 -2 27 -6 37 -9 10 -3 27 -8 37 -10 10 -2 56 -14 103 -25 104
-26 90 -23 230 -55 63 -15 126 -29 140 -31 14 -3 41 -9 60 -14 19 -5 46 -11
60 -14 30 -6 177 -36 205 -42 36 -7 59 -12 145 -28 47 -9 96 -18 110 -21 14
-3 70 -12 125 -20 55 -8 111 -17 125 -19 14 -2 50 -7 80 -11 30 -3 69 -8 85
-10 60 -8 141 -17 170 -20 17 -1 62 -6 100 -9 227 -23 341 -32 485 -41 52 -3
129 -8 170 -10 254 -15 428 -19 965 -19 516 -1 881 6 1055 19 25 2 101 6 170
10 69 3 148 8 175 10 28 2 88 7 135 10 47 3 105 8 130 10 167 14 198 17 225
19 17 2 64 7 105 10 41 4 91 9 110 12 19 2 58 6 85 9 114 12 132 14 175 19 25
3 68 8 95 12 28 3 61 7 75 9 14 2 81 12 150 21 69 9 134 18 145 19 11 2 36 6
55 8 40 6 233 36 270 43 14 2 52 8 85 14 56 9 73 12 135 25 14 2 36 6 50 9 34
5 139 25 170 31 14 3 39 8 55 10 17 3 38 8 48 11 11 3 29 7 40 9 12 1 58 10
102 20 44 9 87 18 95 20 17 4 171 39 265 61 33 7 130 32 215 54 85 23 162 43
170 45 36 8 341 98 400 117 108 35 373 125 405 138 17 6 37 13 45 15 23 5 329
126 455 180 240 103 524 243 724 358 86 50 165 95 176 101 77 43 307 200 430
292 269 201 525 438 700 649 28 33 52 62 55 65 15 14 160 202 247 320 293 398
585 891 758 1280 21 47 46 103 56 124 11 22 19 43 19 48 0 4 11 31 24 60 13
29 32 76 42 103 10 28 21 55 24 60 18 25 166 487 195 605 72 298 82 343 110
510 23 132 23 132 30 183 4 27 8 56 10 65 2 15 12 102 20 187 5 46 16 192 21
265 6 80 6 565 0 640 -2 30 -7 104 -11 165 -4 60 -8 112 -10 115 -2 3 -6 43
-10 90 -4 47 -8 87 -10 90 -2 3 -6 34 -10 70 -3 36 -8 72 -10 80 -2 8 -7 35
-10 60 -7 50 -12 83 -20 120 -3 14 -8 39 -10 55 -4 24 -40 200 -60 295 -2 8
-15 60 -29 115 -15 55 -29 111 -32 125 -23 119 -205 661 -303 905 -156 386
-287 660 -529 1105 -19 36 -68 121 -109 188 -40 68 -73 128 -73 133 0 5 -4 9
-10 9 -5 0 -10 4 -10 10 0 14 -122 206 -201 315 -44 61 -150 206 -161 220 -5
6 -50 63 -102 127 -98 124 -317 384 -376 447 -19 21 -71 77 -115 126 -146 162
-238 257 -500 520 -381 382 -645 629 -1009 945 -23 19 -46 40 -52 45 -11 10
-44 38 -189 161 -226 192 -738 598 -916 726 -13 9 -78 57 -144 105 -66 49
-149 109 -185 133 -36 25 -67 47 -70 50 -20 22 -562 380 -755 499 -82 51 -162
102 -177 112 -15 10 -29 19 -32 19 -3 0 -62 34 -131 75 -70 41 -128 75 -129
75 -2 0 -54 29 -115 65 -62 36 -114 65 -115 65 -2 0 -48 25 -102 56 -55 31
-133 74 -174 96 -41 21 -97 52 -125 66 -227 124 -876 454 -1060 539 -49 23
-146 69 -215 101 -69 33 -177 83 -240 112 -63 29 -144 66 -180 82 -36 17 -78
36 -95 43 -16 7 -52 23 -80 35 -27 13 -117 52 -200 87 -82 35 -163 70 -180 78
-16 7 -70 30 -120 50 -49 20 -103 42 -120 50 -62 28 -588 235 -785 309 -113
43 -241 91 -285 108 -44 17 -111 41 -150 54 -38 12 -119 41 -180 64 -60 23
-114 42 -120 44 -5 1 -174 56 -375 123 -201 66 -401 132 -445 146 -44 13 -120
37 -170 53 -49 15 -94 29 -100 30 -5 1 -102 29 -215 62 -298 88 -777 221 -852
236 -13 3 -86 21 -163 41 -77 21 -147 38 -155 40 -8 2 -53 12 -100 24 -93 22
-460 107 -500 115 -14 3 -65 14 -115 24 -119 26 -333 70 -368 76 -15 3 -35 7
-45 10 -9 3 -34 7 -56 11 -21 3 -41 7 -45 9 -3 2 -40 7 -81 11 -41 3 -82 8
-90 10 -8 2 -46 6 -85 10 -38 3 -88 8 -110 10 -22 2 -60 7 -85 9 -25 3 -76 8
-115 11 -38 3 -92 8 -120 10 -106 11 -171 16 -254 20 -47 2 -122 7 -166 10
-44 3 -125 8 -180 11 -115 7 -1161 15 -1166 9z m2076 -4559 c22 -3 67 -8 100
-11 128 -13 255 -28 330 -40 34 -6 134 -22 180 -30 17 -3 46 -8 65 -11 19 -3
51 -9 70 -14 19 -5 50 -12 69 -15 19 -3 37 -7 40 -9 3 -2 23 -7 43 -10 53 -8
109 -21 293 -67 88 -22 167 -42 175 -44 8 -1 42 -10 75 -19 33 -9 85 -24 115
-32 361 -99 1397 -445 1585 -529 29 -13 85 -36 95 -40 12 -4 49 -20 95 -40 28
-12 100 -44 160 -71 128 -56 669 -325 770 -382 39 -22 102 -56 140 -77 39 -21
138 -79 220 -128 83 -49 165 -98 184 -109 19 -11 61 -37 93 -59 33 -21 61 -39
63 -39 6 0 204 -133 335 -224 323 -225 591 -442 925 -749 1039 -955 1573
-1692 1695 -2336 27 -142 31 -302 13 -460 -62 -540 -357 -991 -863 -1317 -93
-60 -280 -160 -370 -199 -25 -10 -63 -26 -85 -36 -145 -61 -482 -164 -605
-184 -19 -3 -42 -8 -50 -10 -15 -4 -42 -9 -115 -21 -22 -3 -42 -7 -45 -9 -3
-2 -34 -6 -69 -10 -34 -4 -70 -8 -79 -10 -9 -1 -48 -6 -87 -10 -38 -4 -83 -9
-100 -11 -250 -27 -1218 -26 -1555 1 -67 5 -180 16 -220 20 -19 2 -60 6 -90
10 -73 7 -127 14 -170 20 -19 3 -51 8 -70 10 -103 13 -375 59 -409 69 -9 3
-27 7 -41 10 -217 38 -715 175 -855 235 -11 5 -76 30 -145 57 -312 118 -628
284 -910 475 -95 65 -352 258 -370 278 -3 4 -52 46 -110 96 -193 164 -325 289
-580 545 -195 196 -297 303 -421 445 -24 27 -51 56 -59 65 -92 95 -431 520
-571 715 -91 127 -259 373 -259 379 0 2 -30 53 -67 112 -87 143 -127 218 -314
594 -195 393 -213 431 -297 625 -152 351 -256 716 -288 1005 -16 146 -8 380
17 487 6 26 13 58 15 70 18 92 102 268 175 365 120 162 366 356 569 450 150
70 331 134 433 154 10 2 26 5 35 8 56 17 307 55 412 62 47 4 87 8 89 10 6 5
548 -4 596 -10z"/>
</g>
</svg>
